# AST/ASF file generated using VICON BodyLanguage
# -----------------------------------------------
:version 1.10
:name VICON
:units
  mass 1.0
  length 0.45
  angle deg
:documentation
   .ast/.asf automatically generated from VICON data using
   VICON BodyBuilder and BodyLanguage model FoxedUp or BRILLIANT.MOD
:root
   order TX TY TZ RX RY RZ
   axis XYZ
   position 0 0 0  
   orientation 0 0 0 
:bonedata
  begin
     id 1 
     name lhipjoint
     direction 0.734343 -0.627749 0.258209 
     length 2.5437 
     axis 0 0 0  XYZ
  end
  begin
     id 2 
     name lfemur
     direction 0.34202 -0.939693 0  
     length 6.7391  
     axis 0 0 20  XYZ
    dof rx ry rz
    limits (-160.0 20.0)
           (-70.0 70.0)
           (-60.0 70.0)
  end
  begin
     id 3 
     name ltibia
     direction 0.34202 -0.939693 0   
     length 7.21536   
     axis 0 0 20   XYZ
    dof rx
    limits (-10.0 170.0)
  end
  begin
     id 4 
     name lfoot
     direction 0.0489572 -0.134509 0.989702   
     length 1.61313   
     axis -90 7.62852e-016 20   XYZ
    dof rx rz
    limits (-45.0 90.0)
           (-70.0 20.0)
  end
  begin
     id 5 
     name ltoes
     direction 1.53451e-011 -4.21692e-011 1   
     length 0.823104   
     axis -90 7.62852e-016 20   XYZ
    dof rx
    limits (-90.0 20.0)
  end
  begin
     id 6 
     name rhipjoint
     direction -0.746398 -0.615468 0.253157   
     length 2.59446  
     axis 0 0 0  XYZ 
  end
  begin
     id 7 
     name rfemur
     direction -0.34202 -0.939693 0   
     length 6.7075   
     axis 0 0 -20   XYZ
    dof rx ry rz
    limits (-160.0 20.0)
           (-70.0 70.0)
           (-70.0 60.0)
  end
  begin
     id 8 
     name rtibia
     direction -0.34202 -0.939693 0   
     length 7.27262   
     axis 0 0 -20   XYZ
    dof rx
    limits (-10.0 170.0)
 end
 begin
     id 9 
     name rfoot
     direction -0.0455203 -0.125066 0.991104   
     length 1.91095  
     axis -90 -7.62852e-016 -20   XYZ
    dof rx rz
    limits (-45.0 90.0)
           (-20.0 70.0)
  end
  begin
     id 10 
     name rtoes
     direction -1.53601e-011 -4.21913e-011 1   
     length 0.969037   
     axis -90 -7.62852e-016 -20   XYZ
    dof rx
    limits (-90.0 20.0)
  end
  begin
     id 11 
     name lowerback
     direction 0.0181546 0.999122 -0.0377542   
     length 1.99916   
     axis 0 0 0   XYZ
    dof rx ry rz
    limits (-20.0 45.0)
           (-30.0 30.0)
           (-30.0 30.0)
  end
  begin
     id 12 
     name upperback
     direction 0.0203486 0.99589 0.0882534   
     length 1.951   
     axis 0 0 0   XYZ
    dof rx ry rz
    limits (-20.0 45.0)
           (-30.0 30.0)
           (-30.0 30.0)
  end
  begin
     id 13 
     name thorax
     direction 0.0131685 0.994241 0.106355   
     length 1.97461   
     axis 0 0 0   XYZ
    dof rx ry rz
    limits (-20.0 45.0)
           (-30.0 30.0)
           (-30.0 30.0)
  end
  begin
     id 14 
     name lowerneck
     direction -0.0281395 0.999325 0.023617   
     length 1.7959   
     axis 0 0 0   XYZ
    dof rx ry rz
    limits (-20.0 45.0)
           (-30.0 30.0)
           (-30.0 30.0)
  end
  begin
     id 15 
     name upperneck
     direction 0.0288721 0.991984 -0.123019   
     length 1.79917   
     axis 0 0 0   XYZ
    dof rx ry rz
    limits (-20.0 45.0)
           (-30.0 30.0)
           (-30.0 30.0)
  end
  begin
     id 16
     name head
     direction 0.0133797 0.998944 -0.0439492  
     length 1.80902  
     axis 0 0 0   XYZ
    dof rx ry rz
    limits (-20.0 45.0)
           (-30.0 30.0)
           (-30.0 30.0)
  end
  begin
     id 17 
     name lclavicle
     direction 0.919195 0.377107 0.113449  
     length 3.17815  
     axis 0 0 0   XYZ
    dof ry rz
    limits (-20.0 10.0)
           (0.0 20.0)
  end
  begin
     id 18 
     name lhumerus
     direction 1 -4.48959e-011 2.13129e-027   
     length 4.84137   
     axis 180 -30 -90   XYZ
    dof rx ry rz
    limits (-60.0 90.0)
           (-90.0 90.0)
           (-90.0 90.0)
  end
  begin
     id 19
     name lradius
     direction 1 -4.48957e-011 -6.30627e-028   
     length 3.2452   
     axis 180 -30 -90   XYZ
    dof rx
    limits (-10.0 170.0)
  end
  begin
     id 20
     name lwrist
     direction 1 -4.4901e-011 9.13299e-027   
     length 1.6226   
     axis -6.84618e-015 90 90   XYZ
    dof ry
    limits (-180.0 0.0)
 end
  begin
     id 21 
     name lhand
     direction 1 -4.48816e-011 1.82293e-026   
     length 0.521221   
     axis -1.16502e-014 90 90   XYZ
    dof rx rz
    limits (-90.0 90.0)
           (-45.0 45.0)
  end
  begin
     id 22 
     name lfingers
     direction 1 -4.49108e-011 3.65687e-026   
     length 0.420221   
     axis -2.33008e-014 90 90   XYZ
    dof rx
    limits (0.0 90.0)
  end
  begin
     id 23
     name lthumb
     direction 0.707107 -6.34943e-011 0.707107   
     length 0.603356   
     axis -90 45 5.69224e-014   XYZ
    dof rx rz
    limits (-45.0 45.0)
           (-45.0 45.0)
  end
  begin
     id 24 
     name rclavicle
     direction -0.90847 0.38596 0.160368   
     length 3.12973  
     axis 0 0 0   XYZ 
    dof ry rz
    limits (-10.0 20.0)
           (-20.0 0.0)
  end
  begin
     id 25 
     name rhumerus
     direction -1 -4.48974e-011 4.47268e-028  
     length 4.72284   
     axis 180 30 90   XYZ
    dof rx ry rz
    limits (-90.0 60.0)
           (-90.0 90.0)
           (-90.0 90.0)
  end
  begin
     id 26 
     name rradius
     direction -1 -4.48969e-011 3.43203e-027   
     length 3.23459   
     axis 180 30 90   XYZ
    dof rx
    limits (-10.0 170.0)
  end
  begin
     id 27 
     name rwrist
     direction -1 -4.48969e-011 9.12911e-027   
     length 1.6173   
     axis -6.84618e-015 -90 -90   XYZ
    dof ry
    limits (-180.0 0.0)
  end
  begin
     id 28
     name rhand
     direction -1 -4.49194e-011 1.83006e-026   
     length 0.307416   
     axis -1.16502e-014 -90 -90   XYZ
    dof rx rz
    limits (-90.0 90.0)
           (-45.0 45.0)
  end
  begin
     id 29
     name rfingers
     direction -1 -4.48423e-011 3.63103e-026   
     length 0.247847   
     axis -2.33008e-014 -90 -90   XYZ
    dof rx
    limits (0.0 90.0)
  end
  begin
     id 30
     name rthumb
     direction -0.707107 -6.34802e-011 0.707107   
     length 0.35586   
     axis -90 -45 -5.69224e-014   XYZ
    dof rx rz
    limits (-45.0 45.0)
           (-45.0 45.0)
  end
:hierarchy
  begin
    root lhipjoint rhipjoint lowerback
    lhipjoint lfemur
    lfemur ltibia
    ltibia lfoot
    lfoot ltoes
    rhipjoint rfemur
    rfemur rtibia
    rtibia rfoot
    rfoot rtoes
    lowerback upperback
    upperback thorax
    thorax lowerneck lclavicle rclavicle
    lowerneck upperneck
    upperneck head
    lclavicle lhumerus
    lhumerus lradius
    lradius lwrist
    lwrist lhand lthumb
    lhand lfingers
    rclavicle rhumerus
    rhumerus rradius
    rradius rwrist
    rwrist rhand rthumb
    rhand rfingers
  end

#!OML:ASF H:\Terrain\Patient Classification 1\Animal1\Tuesday\Animal1.ASF
:FULLY-SPECIFIED
:DEGREES
1546
root 10.4527 16.5857 -19.7869 10.3708 -37.0976 6.70856
lowerback -6.24447 0.154345 0.691176
upperback -10.5298 0.0751089 1.30611
thorax -7.54334 -0.0408952 0.998173
lowerneck 3.22856 -10.0998 -11.8869
upperneck 19.8923 -13.6802 -1.68318
head 6.31237 -7.72433 0.653637
rclavicle -8.92543e-014 -2.06736e-014
rhumerus 44.1271 -18.3019 -59.9334
rradius 50.2013
rwrist -65.8197
rhand -9.1947 27.7498
rfingers 7.12502
rthumb 16.759 -1.54683
lclavicle -8.92543e-014 -2.06736e-014
lhumerus -83.1662 -22.5072 103.481
lradius 35.5748
lwrist 3.79515
lhand 29.138 28.8578
lfingers 7.12502
lthumb 52.9303 48.3942
rfemur -27.8698 48.4429 -2.0701
rtibia 12.8683
rfoot -46.0923 -47.8967
rtoes 50.6088
lfemur 2.2272 -27.7967 -10.2627
ltibia 9.11313
lfoot -45.281 20.0781
ltoes 67.7057
1547
root 10.4329 16.5819 -19.7975 10.627 -37.0757 6.3224
lowerback -6.1725 0.245751 1.08894
upperback -10.533 0.196494 1.3417
thorax -7.58878 -0.00885349 0.813213
lowerneck 3.28038 -10.1085 -11.9408
upperneck 19.8765 -13.715 -1.5716
head 6.31234 -7.737 0.696497
rclavicle -7.95139e-016 2.54444e-014
rhumerus 44.0262 -18.1761 -59.2906
rradius 48.561
rwrist -64.8479
rhand -9.78827 27.9803
rfingers 7.12502
rthumb 16.1875 -1.36378
lclavicle -7.95139e-016 2.54444e-014
lhumerus -83.2024 -22.7378 103.581
lradius 35.5165
lwrist 3.92119
lhand 29.3405 28.8071
lfingers 7.12502
lthumb 53.1131 48.2276
rfemur -27.8417 48.3954 -1.61546
rtibia 12.7776
rfoot -45.5899 -48.0212
rtoes 50.0038
lfemur 2.13646 -27.764 -9.85349
ltibia 9.20749
lfoot -44.7998 21.5988
ltoes 67.5406
1548
root 10.4117 16.5798 -19.8045 10.6077 -37.0749 6.3603
lowerback -6.11959 0.226017 1.0453
upperback -10.5341 0.177224 1.4432
thorax -7.62109 -0.0105275 0.944594
lowerneck 3.2018 -10.0331 -12.5551
upperneck 20.0379 -13.645 -1.24274
head 6.44616 -7.72955 0.876065
rclavicle -5.38706e-014 4.77083e-015
rhumerus 44.0082 -17.8341 -58.8652
rradius 47.2396
rwrist -63.9283
rhand -10.5226 27.7236
rfingers 7.12502
rthumb 15.4803 -1.67658
lclavicle -5.38706e-014 4.77083e-015
lhumerus -82.9983 -22.4513 103.34
lradius 35.3511
lwrist 3.61656
lhand 29.2031 28.154
lfingers 7.12502
lthumb 52.9891 47.6533
rfemur -27.6124 47.9878 -1.30403
rtibia 12.6775
rfoot -44.5982 -48.1762
rtoes 49.3759
lfemur 2.09215 -27.7733 -9.86227
ltibia 9.32202
lfoot -44.7846 22.1063
ltoes 67.4762
1549
root 10.3849 16.5767 -19.8131 10.7813 -37.1056 6.2103
lowerback -6.22161 0.130963 1.05274
upperback -10.5307 0.0595346 1.70601
thorax -7.5594 -0.0587194 1.2175
lowerneck 2.983 -9.87859 -12.7943
upperneck 20.1735 -13.3762 -1.37268
head 6.52205 -7.62867 0.871131
rclavicle 1.20662e-013 4.29375e-014
rhumerus 44.1638 -17.4451 -58.8715
rradius 46.0899
rwrist -62.849
rhand -10.855 27.4456
rfingers 7.12502
rthumb 15.1601 -1.97907
lclavicle 1.20662e-013 4.29375e-014
lhumerus -82.7753 -21.8145 103.011
lradius 35.3154
lwrist 3.15722
lhand 28.9808 27.9196
lfingers 7.12502
lthumb 52.7883 47.5451
rfemur -27.6864 47.7116 -0.996297
rtibia 12.7926
rfoot -44.5431 -47.8948
rtoes 50.2795
lfemur 2.13038 -27.7118 -9.64178
ltibia 9.15796
lfoot -45.9991 20.0129
ltoes 67.6586
1550
root 10.3574 16.5746 -19.8267 10.8601 -37.0938 6.18313
lowerback -6.21949 0.0964515 1.1099
upperback -10.4862 0.0145486 1.73748
thorax -7.51089 -0.0836335 1.21824
lowerneck 2.88115 -9.79919 -12.6689
upperneck 20.0804 -13.2551 -1.35221
head 6.49203 -7.55516 0.866954
rclavicle -1.18277e-013 -5.56597e-014
rhumerus 44.3352 -17.542 -59.1016
rradius 44.7514
rwrist -61.7095
rhand -10.4994 27.4094
rfingers 7.12502
rthumb 15.5027 -1.98909
lclavicle -1.18277e-013 -5.56597e-014
lhumerus -82.7169 -21.7265 102.922
lradius 35.3538
lwrist 3.05933
lhand 28.8122 28.2115
lfingers 7.12502
lthumb 52.636 47.9317
rfemur -27.7714 47.4595 -0.77852
rtibia 12.9704
rfoot -44.4504 -47.6879
rtoes 50.8653
lfemur 2.1528 -27.7131 -9.48384
ltibia 8.94419
lfoot -46.7908 18.8336
ltoes 67.8532
1551
root 10.3321 16.5707 -19.8445 10.6629 -37.0568 6.44596
lowerback -6.16172 0.154438 1.18854
upperback -10.2889 0.0796818 1.41079
thorax -7.32456 -0.0679107 0.827843
lowerneck 2.78658 -9.82731 -12.4419
upperneck 19.8622 -13.3494 -0.904997
head 6.45139 -7.54422 0.969324
rclavicle -4.65156e-014 -1.27222e-014
rhumerus 44.5214 -18.1191 -59.5478
rradius 43.3397
rwrist -60.7175
rhand -10.4254 27.6031
rfingers 7.12502
rthumb 15.574 -1.78982
lclavicle -4.65156e-014 -1.27222e-014
lhumerus -82.5144 -22.312 102.684
lradius 35.3206
lwrist 3.15085
lhand 29.0242 28.5662
lfingers 7.12502
lthumb 52.8276 48.1671
rfemur -27.6331 47.2193 -0.698525
rtibia 13.0283
rfoot -43.834 -47.6554
rtoes 50.8133
lfemur 2.08945 -27.7994 -9.59948
ltibia 8.97104
lfoot -46.7654 19.6933
ltoes 67.8928
1552
root 10.3042 16.5676 -19.8611 10.8124 -36.9215 6.20423
lowerback -6.33503 0.220978 1.83281
upperback -10.0773 0.143402 1.13951
thorax -6.99238 -0.0904349 0.180881
lowerneck 2.65886 -9.78007 -12.0304
upperneck 19.7911 -13.2966 -0.740139
head 6.42298 -7.47431 0.963028
rclavicle -1.27222e-014 -2.54444e-014
rhumerus 44.5512 -18.5332 -59.8298
rradius 42.0851
rwrist -60.1015
rhand -10.688 27.738
rfingers 7.12502
rthumb 15.321 -1.67442
lclavicle -1.27222e-014 -2.54444e-014
lhumerus -82.3389 -22.9494 102.414
lradius 35.3038
lwrist 3.2832
lhand 29.5318 28.7185
lfingers 7.12502
lthumb 53.2855 48.0284
rfemur -27.6728 47.2517 -0.353223
rtibia 13.1419
rfoot -43.5721 -47.5174
rtoes 51.4658
lfemur 2.00878 -27.8995 -9.23503
ltibia 8.92525
lfoot -46.5987 20.9681
ltoes 67.8712
1553
root 10.2724 16.5714 -19.8753 10.9877 -36.7358 6.08241
lowerback -6.47217 0.185644 2.23921
upperback -10.0852 0.0788544 1.02692
thorax -6.92532 -0.156554 -0.164054
lowerneck 2.74 -9.65501 -11.8093
upperneck 19.8179 -13.125 -0.841596
head 6.38377 -7.38525 0.918077
rclavicle 2.70347e-014 2.06736e-014
rhumerus 44.4469 -18.5564 -59.9234
rradius 40.8236
rwrist -59.7366
rhand -10.5584 27.471
rfingers 7.12502
rthumb 15.4459 -1.93185
lclavicle 2.70347e-014 2.06736e-014
lhumerus -82.5124 -23.1923 102.489
lradius 35.2945
lwrist 3.42162
lhand 29.861 28.7835
lfingers 7.12502
lthumb 53.5819 47.9003
rfemur -27.7459 47.0202 -0.0681978
rtibia 13.2544
rfoot -42.79 -47.8818
rtoes 51.613
lfemur 1.82023 -28.0463 -8.90191
ltibia 8.84828
lfoot -46.1436 22.8605
ltoes 67.7685
1554
root 10.2378 16.5712 -19.8929 11.0729 -36.6584 6.15987
lowerback -5.97151 0.0460281 1.54757
upperback -10.4804 -0.0604393 1.50361
thorax -7.64594 -0.163573 0.729338
lowerneck 2.93033 -9.56444 -12.325
upperneck 20.0229 -12.9829 -1.10455
head 6.43565 -7.3811 0.922735
rclavicle 5.80451e-014 3.33958e-014
rhumerus 44.0974 -17.8365 -59.2242
rradius 39.6612
rwrist -59.5105
rhand -10.8351 27.3243
rfingers 7.12502
rthumb 15.1794 -2.09894
lclavicle 5.80451e-014 3.33958e-014
lhumerus -82.7961 -22.3959 102.87
lradius 35.088
lwrist 3.00177
lhand 29.747 28.7409
lfingers 7.12502
lthumb 53.4794 47.925
rfemur -27.7543 46.4267 0.194691
rtibia 13.3085
rfoot -40.5832 -48.8878
rtoes 50.3919
lfemur 1.58647 -28.112 -8.72151
ltibia 8.83185
lfoot -46.3149 23.1037
ltoes 67.7549
1555
root 10.2003 16.5645 -19.9131 11.2623 -36.6693 5.84168
lowerback -5.63179 0.0750078 1.60115
upperback -10.5722 -0.00275921 1.66347
thorax -7.94386 -0.132934 0.870508
lowerneck 2.82235 -9.57521 -12.5284
upperneck 20.2184 -12.9982 -1.00303
head 6.54076 -7.40239 0.968765
rclavicle 1.18277e-013 5.08889e-014
rhumerus 43.8724 -17.7279 -59.0023
rradius 38.5078
rwrist -58.8882
rhand -11.5417 27.5929
rfingers 7.12502
rthumb 14.4986 -1.88048
lclavicle 1.18277e-013 5.08889e-014
lhumerus -82.8008 -22.1945 102.638
lradius 35.0002
lwrist 2.59978
lhand 29.3 28.4637
lfingers 7.12502
lthumb 53.0765 47.9075
rfemur -27.6393 45.7587 1.02373
rtibia 13.4847
rfoot -37.036 -50.0495
rtoes 48.3306
lfemur 1.68211 -28.0582 -8.28783
ltibia 8.60602
lfoot -47.487 21.1613
ltoes 67.9955
